<svg xmlns="http://www.w3.org/2000/svg" height="24px" viewBox="0 -960 960 960" width="24px" fill="#000000"><path d="M206-40q-17 3-30-6.5T160-73q-3-17 6.5-29.5T193-118l167-28v-74l-237 20q-17 2-29-9t-14-28q-2-17 9-29t28-14l243-20v-61l-281-9q-17-1-28.5-13T40-412q1-17 12.5-28T81-450l279 9v-60l-208-39q-17-3-26-16.5t-6-30.5q3-17 16.5-26t30.5-6l262 49-21-103q-3-17 1-32t15-28q11-13 25-20.5t31-6.5l18 1 191 211q15 17 23 37t8 43v242q0 45-28 77.5T620-108L206-40Zm574-300v-128q0-32-12.5-64.5T733-589L605-729l-48-137q-5-16 2-31t23-20q16-5 31 1.5t20 22.5l89 251 78-69q12-11 27.5-15t32.5-2q17 2 30 11.5t21 23.5l9 16-89 276q-6 20-20 35t-31 26ZM353-645l-60-11-46-66q-9-14-6.5-29.5T257-777q14-10 30.5-7t26.5 17l36 54q-2 13-2 26t2 26l3 16Zm41-143-30-51q-8-14-3.5-30.5T379-894q14-8 30.5-3.5T434-879l35 60q-21 2-39 8t-36 23Z"/></svg>