<svg width="48" height="48" viewBox="0 0 48 48" fill="none" xmlns="http://www.w3.org/2000/svg">
<path d="M19.5582 16.8893V27.556L27.9137 32.7115L29.3359 30.5782L22.2248 26.3115V16.8893H19.5582Z" fill="#004B76"/>
<path d="M33.6382 24.0004C33.727 24.5871 33.7804 25.1738 33.7804 25.7782C33.7804 32.7115 28.2693 38.2227 21.3359 38.2227C14.4026 38.2227 8.89149 32.7115 8.89149 25.7782C8.89149 18.8449 14.4026 13.3338 21.3359 13.3338C22.5804 13.3338 23.7715 13.5115 24.8915 13.8493V10.1871C23.7537 9.92043 22.5626 9.77821 21.3359 9.77821C12.447 9.77821 5.33594 16.8893 5.33594 25.7782C5.33594 34.6671 12.447 41.7782 21.3359 41.7782C30.2248 41.7782 37.3359 34.6671 37.3359 25.7782C37.3359 25.1738 37.3004 24.5871 37.2293 24.0004H33.6382Z" fill="#004B76"/>
<path d="M37.3359 11.556V6.22266H33.7804V11.556H28.447V15.1115H33.7804V20.4449H37.3359V15.1115H42.6693V11.556H37.3359Z" fill="#004B76"/>
</svg>
