<svg width="181" height="83" viewBox="0 0 181 83" fill="none" xmlns="http://www.w3.org/2000/svg">
<rect width="180" height="82" fill="white"/>
<path d="M18.9285 11.3811C18.9648 11.0794 18.9863 10.7683 18.9863 10.4505C18.9863 10.2768 18.9876 10.0748 18.9661 9.84581C21.6416 9.8081 23.9882 7.87417 23.9882 5.65069C23.9882 4.51943 23.2526 3.66559 22.8378 3.15517C22.9304 3.13497 23.0244 3.11342 23.1197 3.09053C23.5117 3.4326 24.6232 4.64737 24.6232 6.18131C24.6232 8.84921 21.9652 11.3259 18.9285 11.3811ZM16.2329 2.0899C16.1832 1.79227 16.0705 1.52292 15.8986 1.29128C15.908 1.01923 16.0195 0.759311 16.4557 0.973444C16.2195 1.21586 16.4021 1.64547 16.4021 1.64547C16.4021 1.64547 16.8853 1.42056 16.7846 1.10004C17.5015 1.27242 16.986 2.23804 16.2329 2.0899ZM15.6113 3.45954C15.516 3.0609 15.312 2.65149 15.0529 2.34308C14.8166 2.06296 14.426 1.73031 13.8997 1.73031C13.6594 1.73031 13.2567 1.84344 13.0003 1.95253C12.905 1.77745 12.7184 1.35592 12.7184 1.16603C12.7184 0.97075 13.0473 0.772779 13.6769 0.772779C15.0623 0.772779 15.8892 1.40036 15.8892 2.45352C15.8892 2.82387 15.7429 3.16056 15.6113 3.45954ZM19.1688 21.3713C19.3299 21.3713 19.4078 21.3968 19.5018 21.4319C19.9005 22.52 21.4376 24.5738 21.502 24.6614L21.5154 24.6802L21.5383 24.6748C21.9155 24.6142 22.878 24.4688 23.6835 24.4688H23.7023C23.7896 24.4688 23.8889 24.4688 23.952 24.5307C24.0043 24.5832 24.0298 24.6748 24.0298 24.8055C24.0298 25.0061 23.9453 25.3495 23.8432 25.4963C23.5613 25.1879 23.1036 25.0492 22.3706 25.0492C22.1504 25.0492 21.89 25.1152 21.749 25.1529L21.6913 25.165L21.6255 25.1825L22.0484 25.6068C22.7008 26.2613 23.2647 26.8256 23.2647 27.2013C23.2647 27.4276 23.0445 27.7225 22.8431 27.8531C22.7988 27.165 22.1061 26.2438 21.4309 25.728L21.3731 25.6849L21.3624 25.9273C21.353 26.0916 21.3382 26.3381 21.3382 26.602C21.3382 27.9124 21.2053 28.1117 20.7529 28.1117C20.6831 28.1117 20.5771 28.0915 20.5113 28.0673C20.7664 27.7508 20.867 27.3333 20.867 26.6007L20.863 26.2626L20.859 25.9906C20.859 25.6903 20.8899 25.4681 20.914 25.2889L20.9274 25.1879L20.8563 25.1785C20.6442 25.1489 20.2509 25.095 19.9501 25.095C19.3044 25.095 18.8668 25.1543 18.55 25.4532C18.3405 25.2836 18.1258 24.9913 18.1258 24.8068C18.1258 24.5334 18.2949 24.5119 18.5178 24.5119C18.6305 24.5119 18.7352 24.528 18.8802 24.5455C19.1581 24.5873 19.5756 24.6492 20.4361 24.6492H20.4898L20.4724 24.5967C20.2549 23.9705 19.6561 23.0601 18.6963 21.8898C18.7822 21.576 18.8668 21.3713 19.1688 21.3713ZM10.8806 24.5967L10.8631 24.6492H10.9168C11.776 24.6492 12.1948 24.5873 12.4727 24.5455C12.6177 24.528 12.7224 24.5119 12.8352 24.5119C13.0567 24.5119 13.2272 24.5334 13.2272 24.8068C13.2272 24.9913 13.0124 25.2836 12.8043 25.4532C12.4861 25.1543 12.0485 25.095 11.4041 25.095C11.1021 25.095 10.7074 25.1489 10.4966 25.1785L10.4631 25.1825L10.4255 25.1879L10.4375 25.2889C10.4631 25.4681 10.4939 25.6903 10.4939 25.9906L10.4899 26.2626L10.4859 26.6007C10.4859 27.3333 10.5866 27.7508 10.843 28.0673C10.7758 28.0915 10.6698 28.1117 10.6 28.1117C10.1462 28.1117 10.0147 27.9124 10.0147 26.602C10.0147 26.3381 10.0012 26.0916 9.99185 25.9273L9.97843 25.6835L9.92205 25.728C9.24814 26.2438 8.55275 27.165 8.51113 27.8531C8.30842 27.7225 8.08826 27.4276 8.08826 27.2013C8.08826 26.8256 8.65209 26.2613 9.30452 25.6068L9.67906 25.231L9.72739 25.1825L9.60388 25.1529C9.46293 25.1152 9.20249 25.0492 8.98099 25.0492C8.24935 25.0492 7.79292 25.1879 7.50966 25.4963C7.40764 25.3495 7.32306 25.0061 7.32306 24.8055C7.32306 24.6748 7.34857 24.5832 7.40093 24.5307C7.46402 24.4688 7.56336 24.4688 7.65062 24.4688H7.66941C8.47488 24.4688 9.43876 24.6142 9.81465 24.6748L9.83747 24.6802L9.8509 24.6614C9.91668 24.5738 11.4524 22.52 11.8525 21.4319C11.9438 21.3968 12.023 21.3713 12.1841 21.3713C12.4861 21.3713 12.5707 21.576 12.658 21.8898C11.6968 23.0601 11.098 23.9705 10.8806 24.5967ZM6.7297 6.18131C6.7297 4.64737 7.84259 3.4326 8.23459 3.09053C8.32856 3.11342 8.42253 3.13497 8.5165 3.15517C8.10034 3.66559 7.36468 4.51943 7.36468 5.65069C7.36468 7.89706 9.75692 9.84715 12.466 9.84715C12.4485 10.0397 12.4391 10.2417 12.4391 10.4505C12.4391 10.7818 12.4579 11.0902 12.4902 11.3811C9.42668 11.3622 6.7297 8.86807 6.7297 6.18131ZM27.2772 10.9124C28.6519 13.0928 29.7272 13.0564 31.3516 13.0564C30.0078 12.0235 29.1191 10.6996 28.6949 10.0236L26.1845 5.99411C25.9402 4.74972 25.2985 3.58613 24.3373 2.72017C24.6608 2.59762 24.9293 2.46833 25.0904 2.34578C23.4513 2.34578 21.8269 1.5108 20.9328 1.5108C20.3582 1.5108 19.9891 1.85556 19.9891 2.31076C20.0253 2.81849 20.5462 3.33429 21.5087 3.33429C21.7262 3.33429 22.0054 3.30601 22.3115 3.25483C22.8324 3.98342 23.2526 4.64198 23.2526 5.58201C23.2526 7.34625 21.1503 8.72127 19.0279 8.72127C18.9071 8.72127 18.793 8.71589 18.6735 8.70781C18.4815 8.27011 17.8412 7.53614 17.8412 6.70115C17.8412 5.29919 18.7527 4.15446 18.7527 2.76596C18.7527 1.9027 18.3338 1.36804 18.1727 1.14583C18.4332 0.903413 18.7178 0.605782 18.7849 0.401077C18.6332 0.467067 18.4533 0.475148 18.1915 0.475148C17.174 0.475148 16.3443 0.209839 15.5362 0.209839C15.0744 0.209839 14.9509 0.352594 14.9509 0.488615C14.9509 0.538445 14.9576 0.589621 14.971 0.613863C14.7992 0.546525 14.6381 0.502083 14.4461 0.467067C14.2071 0.421278 13.9507 0.398383 13.6769 0.398383C12.6942 0.398383 12.3452 0.811834 12.3452 1.16603C12.3452 1.46501 12.5801 2.01178 12.8472 2.42928C13.2298 2.23534 13.6903 2.10471 13.8997 2.10471C14.4219 2.10471 14.8851 2.60301 15.1308 3.19288C14.7804 3.23598 14.7132 3.25079 14.3588 3.25079C13.4017 3.25079 12.7506 2.90737 12.6163 2.90737C12.6043 2.90737 12.5788 2.9141 12.5788 2.93565C12.5788 3.07033 12.8499 3.42587 13.3842 3.62115C14.089 3.87972 15.1442 3.98746 15.32 4.01709C15.32 4.04806 15.1415 4.38206 14.9415 4.4467C14.8998 4.46017 14.8663 4.46152 14.8166 4.45074C14.081 4.30529 13.8756 4.24334 12.9426 3.8878C12.9144 3.87703 12.8969 3.89454 12.8969 3.92416C12.8969 4.29452 13.8527 5.11199 14.7092 5.42579C13.9937 6.34157 13.101 7.27891 12.6794 8.70781C12.56 8.71589 12.4445 8.72127 12.325 8.72127C10.2026 8.72127 8.10034 7.34625 8.10034 5.58201C8.10034 4.64198 8.52053 3.98342 9.0414 3.25483C9.34748 3.30601 9.62536 3.33429 9.84418 3.33429C10.8067 3.33429 11.3276 2.81849 11.3652 2.31076C11.3652 1.85556 10.996 1.5108 10.4201 1.5108C9.52602 1.5108 7.903 2.34578 6.26119 2.34578C6.42362 2.46833 6.69211 2.59762 7.0143 2.72017C6.05445 3.58613 5.41276 4.74972 5.16843 5.99411L2.65805 10.0236C2.23518 10.6996 1.34379 12.0235 0 13.0564C1.62436 13.0564 2.70101 13.0928 4.07568 10.9124L5.36309 8.84652C5.4584 9.11452 5.57519 9.37579 5.71347 9.63167L3.15341 13.7406C2.72786 14.422 1.84453 15.7338 0.495364 16.7735C2.11973 16.7735 3.19637 16.8112 4.57104 14.6321L6.774 11.0929C6.93912 11.2693 7.1123 11.4417 7.29487 11.606L4.18576 16.5997C3.75886 17.2825 2.8809 18.5916 1.52905 19.6299C3.15341 19.6299 4.23006 19.669 5.60338 17.4886L8.63464 12.6201C8.83466 12.7467 9.03871 12.8692 9.25082 12.9851L5.54969 18.9256C5.12279 19.6084 4.24483 20.9134 2.89298 21.9557C4.51734 21.9557 5.59399 21.9935 6.96866 19.8144L10.7785 13.6962C11.0041 13.7823 11.2323 13.8658 11.4645 13.9399L7.15928 20.8528C6.7391 21.5261 5.841 22.8554 4.50392 23.8829C6.12694 23.8829 7.20493 23.9206 8.57825 21.7416L13.1667 14.3749C13.2137 14.383 13.2594 14.3897 13.305 14.3992C13.4299 14.7978 13.5171 15.1695 13.5171 15.5398C13.5171 17.8549 12.0028 19.8993 10.1852 21.4776C10.302 21.5288 10.5047 21.5463 10.6913 21.5463C11.0672 21.5463 11.3088 21.5261 11.4793 21.4965C11.0578 22.4567 10.1529 23.6971 9.69651 24.3381C9.10181 24.2304 8.23593 24.1469 7.66941 24.1469C7.07605 24.1469 7.00893 24.4944 7.00893 24.8055C7.00893 25.3455 7.26131 25.7751 7.55396 26.0148C7.66404 25.7388 7.88555 25.3697 8.98099 25.3697C9.00247 25.3697 9.04006 25.3724 9.09107 25.3765C8.77157 25.7334 7.76876 26.5468 7.76876 27.2013C7.76876 27.635 8.24264 28.2854 8.86688 28.2854C8.83063 28.1454 8.83466 28.0174 8.83466 27.9205C8.83466 27.3899 9.30318 26.769 9.6992 26.3354C9.68712 26.4646 9.69383 26.4512 9.69383 26.602C9.69383 27.8558 9.80659 28.4322 10.6 28.4322C10.9893 28.4322 11.2578 28.2181 11.3504 28.1535C10.8349 27.6781 10.8081 27.3037 10.8081 26.6007C10.8094 26.4175 10.8107 26.2384 10.8134 25.9919C10.8148 25.8303 10.8121 25.6175 10.7866 25.464C11.0698 25.425 11.1853 25.425 11.4041 25.425C11.4041 25.425 12.5304 25.3347 12.8029 25.9233C13.109 25.6418 13.5534 25.2445 13.5534 24.8068C13.5534 24.5173 13.4164 24.19 12.8352 24.19C12.615 24.19 11.9236 24.3247 11.345 24.3247C11.5008 23.9786 12.1921 22.9631 12.7922 22.2264C12.8835 22.5119 13.0244 22.8204 13.3386 23.0735C13.3829 22.5995 13.6594 21.1006 14.3978 20.2238C14.4837 20.8164 14.5991 21.4238 14.5991 22.7045C14.5991 25.8209 13.8527 28.1225 12.2673 28.5615C12.474 28.9211 12.9103 29.2457 13.3627 29.2457C13.9427 29.2457 14.2582 28.5871 14.5803 27.9663C14.7482 28.4242 15.2113 29.5474 15.6758 29.5474C16.1403 29.5474 16.6048 28.4242 16.7726 27.9663C17.0934 28.5871 17.4102 29.2457 17.9902 29.2457C18.4426 29.2457 18.8789 28.9211 19.0856 28.5615C17.5002 28.1225 16.7524 25.8209 16.7524 22.7045C16.7524 21.4238 16.8679 20.8164 16.9538 20.2238C17.6935 21.1006 17.9714 22.5995 18.013 23.0735C18.3285 22.8204 18.4708 22.5119 18.5607 22.2264C19.1594 22.9631 19.8521 23.9786 20.0079 24.3247C19.4293 24.3247 18.7366 24.19 18.5178 24.19C17.9378 24.19 17.8009 24.5173 17.8009 24.8068C17.8009 25.2445 18.2452 25.6418 18.5513 25.9233C18.8211 25.3347 19.9501 25.425 19.9501 25.425C20.1676 25.425 20.2831 25.425 20.5677 25.464C20.5408 25.6175 20.5395 25.8303 20.5408 25.9919C20.5435 26.2384 20.5435 26.4175 20.5448 26.6007C20.5448 27.3037 20.518 27.6781 20.0025 28.1535C20.0951 28.2181 20.3636 28.4322 20.7529 28.4322C21.5463 28.4322 21.6604 27.8558 21.6604 26.602C21.6604 26.4512 21.6645 26.4646 21.6537 26.3354C22.0497 26.769 22.5183 27.3899 22.5183 27.9205C22.5183 28.0174 22.5236 28.1454 22.4847 28.2854C23.1103 28.2854 23.5855 27.635 23.5855 27.2013C23.5855 26.5468 22.5827 25.7334 22.2605 25.3765C22.3129 25.3724 22.3504 25.3697 22.3706 25.3697C23.4674 25.3697 23.6889 25.7388 23.7989 26.0148C24.0916 25.7751 24.344 25.3455 24.344 24.8055C24.344 24.4944 24.2769 24.1469 23.6835 24.1469C23.117 24.1469 22.2524 24.2304 21.6564 24.3381C21.1986 23.6971 20.2965 22.4567 19.8736 21.4965C20.0441 21.5261 20.2871 21.5463 20.6616 21.5463C20.8496 21.5463 21.051 21.5288 21.1677 21.4776C19.3501 19.8993 17.8358 17.8549 17.8358 15.5398C17.8358 15.1695 17.923 14.7978 18.0479 14.3992C18.0922 14.3897 18.1405 14.383 18.1862 14.3749L22.7747 21.7416C24.148 23.9206 25.226 23.8829 26.849 23.8829C25.5119 22.8554 24.6138 21.5261 24.1936 20.8528L19.887 13.9399C20.1206 13.8658 20.3502 13.7823 20.5757 13.6962L24.3843 19.8144C25.7589 21.9935 26.8356 21.9557 28.4599 21.9557C27.1081 20.9134 26.2301 19.6084 25.8032 18.9256L22.1034 12.9851C22.3129 12.8692 22.5183 12.7467 22.7169 12.6201L25.7495 17.4886C27.1242 19.669 28.1995 19.6299 29.8239 19.6299C28.472 18.5916 27.5954 17.2825 27.1672 16.5997L24.058 11.606C24.2406 11.4417 24.4151 11.2693 24.5776 11.0929L26.7832 14.6321C28.1565 16.8112 29.2332 16.7735 30.8575 16.7735C29.507 15.7338 28.6264 14.422 28.1995 13.7406L25.6408 9.63167C25.7777 9.37579 25.8945 9.11452 25.9912 8.84652L27.2772 10.9124Z" fill="black"/>
<path d="M39.5043 1.55652H44.2029V28.4914H39.5043V1.55652Z" fill="black"/>
<path d="M39.5041 28.4915H44.2027V55.4264H39.5041V28.4915Z" fill="#FF0000"/>
<path d="M39.5041 55.4264H44.2027V82.3613H39.5041V55.4264Z" fill="#FFCC00"/>
<path d="M60.7043 4.00767C60.7043 2.27845 59.6571 1.16335 57.0152 1.16335H54.8727V12.3144H57.1441C59.8021 12.3144 60.9942 11.0377 60.9942 9.2923C60.9942 7.8055 60.0438 6.83584 58.9 6.60959V6.57727C59.8666 6.31869 60.7043 5.55913 60.7043 4.00767ZM59.2866 4.05616C59.2866 5.33287 58.4973 6.12476 56.9991 6.12476H56.2742V2.27845H57.0152C58.5778 2.27845 59.2866 3.03802 59.2866 4.05616ZM59.4961 9.19534C59.4961 10.4721 58.7872 11.1508 57.1441 11.1508H56.2742V7.23986H57.2246C58.6745 7.23986 59.4961 7.99943 59.4961 9.19534ZM66.9064 11.4417H66.9386V12.3144H68.1307V4.55715H66.8258V10.4882C66.5681 10.8114 66.0526 11.3447 65.2632 11.3447C64.3933 11.3447 63.9745 10.8276 63.9745 9.55088V4.55715H62.6696V9.64785C62.6696 11.7488 63.5234 12.5083 64.8927 12.5083C66.0687 12.5083 66.7614 11.7164 66.9064 11.4417ZM73.0118 5.47832C73.9139 5.47832 74.3489 6.01163 74.3489 7.32067V12.3144H75.6538V7.2237C75.6538 5.12278 74.7839 4.36322 73.3984 4.36322C72.1902 4.36322 71.4975 5.1551 71.3526 5.42984H71.3203V4.55715H70.1282V12.3144H71.4331V6.33485C71.6909 6.01163 72.2225 5.47832 73.0118 5.47832ZM80.3094 11.3447C79.4072 11.3447 78.6018 10.6337 78.6018 8.50042C78.6018 6.30253 79.5522 5.5268 80.7604 5.5268C81.2276 5.5268 81.5337 5.65609 81.7592 5.80154V10.5852C81.582 10.8438 81.1309 11.3447 80.3094 11.3447ZM81.8397 11.4902H81.872V12.3144H83.0641V0.743164L81.7592 0.888612V4.60563C81.5176 4.50866 81.1632 4.4117 80.6638 4.4117C79.0206 4.4117 77.2486 5.41368 77.2486 8.5489C77.2486 11.3771 78.489 12.5083 79.955 12.5083C81.1793 12.5083 81.6948 11.7326 81.8397 11.4902ZM87.5747 5.42984C88.3963 5.42984 88.8312 6.06011 88.8312 7.12674C88.8312 7.36915 88.8151 7.57924 88.799 7.69237H85.996C86.0604 6.23789 86.6564 5.42984 87.5747 5.42984ZM90.1844 11.5872L89.7011 10.666C89.5239 10.8438 88.9923 11.3447 88.0741 11.3447C86.7692 11.3447 86.0604 10.4882 85.9799 8.67819H89.9267C89.975 8.30649 90.0233 7.83782 90.0233 7.17522C90.0233 5.31671 89.1212 4.36322 87.6552 4.36322C86.0443 4.36322 84.7072 5.59145 84.7072 8.33881C84.7072 11.2639 85.9315 12.5083 87.8808 12.5083C89.3467 12.5083 89.975 11.8134 90.1844 11.5872ZM95.6616 5.18742C95.4038 4.92885 94.8883 4.36322 93.6962 4.36322C92.4397 4.36322 91.457 5.21975 91.457 6.36717C91.457 7.4338 92.037 8.06407 93.0035 8.67819L93.4868 8.98525C94.2278 9.45391 94.6145 9.71249 94.6145 10.4559C94.6145 10.9569 94.1956 11.3447 93.4224 11.3447C92.5847 11.3447 92.1014 10.8438 91.8598 10.5852L91.2315 11.6195C91.5376 11.9427 92.1658 12.5083 93.4063 12.5083C94.985 12.5083 95.871 11.5548 95.871 10.3266C95.871 9.17918 95.2266 8.5489 94.1795 7.91862L93.6962 7.62773C93.0035 7.20754 92.6813 6.88432 92.6813 6.30253C92.6813 5.85002 93.0519 5.47832 93.7446 5.47832C94.4695 5.47832 94.9205 5.93083 95.0977 6.12476L95.6616 5.18742ZM100.301 5.5268C101.107 5.5268 101.461 6.06012 101.461 7.32067V12.3144H102.766V7.11058C102.766 6.81968 102.75 6.54494 102.701 6.30253C102.991 5.96315 103.475 5.5268 104.183 5.5268C105.053 5.5268 105.521 6.06012 105.521 7.32067V12.3144H106.825V7.11058C106.825 5.26823 106.02 4.36322 104.473 4.36322C103.475 4.36322 102.766 4.96117 102.427 5.39752C102.073 4.7026 101.429 4.36322 100.559 4.36322C99.4956 4.36322 98.8351 5.0743 98.6257 5.42984H98.5935V4.55715H97.4014V12.3144H98.7062V6.33485C98.9318 6.06012 99.4311 5.5268 100.301 5.5268ZM109.435 2.68248C109.951 2.68248 110.305 2.29461 110.305 1.74514C110.305 1.21183 109.951 0.823969 109.435 0.823969C108.903 0.823969 108.549 1.21183 108.549 1.74514C108.549 2.29461 108.903 2.68248 109.435 2.68248ZM110.079 4.55715H108.775V12.3144H110.079V4.55715ZM114.961 5.47832C115.863 5.47832 116.298 6.01163 116.298 7.32067V12.3144H117.603V7.2237C117.603 5.12278 116.733 4.36322 115.347 4.36322C114.139 4.36322 113.446 5.1551 113.301 5.42984H113.269V4.55715H112.077V12.3144H113.382V6.33485C113.64 6.01163 114.171 5.47832 114.961 5.47832ZM120.212 2.68248C120.728 2.68248 121.082 2.29461 121.082 1.74514C121.082 1.21183 120.728 0.823969 120.212 0.823969C119.681 0.823969 119.326 1.21183 119.326 1.74514C119.326 2.29461 119.681 2.68248 120.212 2.68248ZM120.857 4.55715H119.552V12.3144H120.857V4.55715ZM126.753 5.18742C126.495 4.92885 125.979 4.36322 124.787 4.36322C123.531 4.36322 122.548 5.21975 122.548 6.36717C122.548 7.4338 123.128 8.06407 124.095 8.67819L124.578 8.98525C125.319 9.45391 125.706 9.71249 125.706 10.4559C125.706 10.9569 125.287 11.3447 124.513 11.3447C123.676 11.3447 123.192 10.8438 122.951 10.5852L122.323 11.6195C122.629 11.9427 123.257 12.5083 124.497 12.5083C126.076 12.5083 126.962 11.5548 126.962 10.3266C126.962 9.17918 126.318 8.5489 125.271 7.91862L124.787 7.62773C124.095 7.20754 123.772 6.88432 123.772 6.30253C123.772 5.85002 124.143 5.47832 124.836 5.47832C125.561 5.47832 126.012 5.93083 126.189 6.12476L126.753 5.18742ZM132.004 12.169L131.827 11.1185C131.698 11.1993 131.408 11.3447 131.022 11.3447C130.361 11.3447 130.103 11.0215 130.103 9.92258V5.62377H131.795L131.956 4.55715H130.103V2.39158H128.944L128.799 4.55715L127.864 4.75108V5.62377H128.799V10.1004C128.799 11.8134 129.475 12.5083 130.796 12.5083C131.489 12.5083 131.892 12.2498 132.004 12.169ZM135.677 5.42984C136.499 5.42984 136.934 6.06011 136.934 7.12674C136.934 7.36915 136.918 7.57924 136.902 7.69237H134.098C134.163 6.23789 134.759 5.42984 135.677 5.42984ZM138.287 11.5872L137.804 10.666C137.626 10.8438 137.095 11.3447 136.177 11.3447C134.872 11.3447 134.163 10.4882 134.082 8.67819H138.029C138.077 8.30649 138.126 7.83782 138.126 7.17522C138.126 5.31671 137.224 4.36322 135.758 4.36322C134.147 4.36322 132.81 5.59145 132.81 8.33881C132.81 11.2639 134.034 12.5083 135.983 12.5083C137.449 12.5083 138.077 11.8134 138.287 11.5872ZM143.426 4.54099C143.297 4.4925 143.087 4.4117 142.717 4.4117C141.734 4.4117 141.315 4.99349 141.09 5.60761H141.058V4.55715H139.866V12.3144H141.17V6.62575C141.364 6.1086 141.799 5.57529 142.62 5.57529C142.975 5.57529 143.2 5.67225 143.265 5.70457L143.426 4.54099ZM145.214 2.68248C145.729 2.68248 146.084 2.29461 146.084 1.74514C146.084 1.21183 145.729 0.823969 145.214 0.823969C144.682 0.823969 144.328 1.21183 144.328 1.74514C144.328 2.29461 144.682 2.68248 145.214 2.68248ZM145.858 4.55715H144.553V12.3144H145.858V4.55715ZM152.044 11.4417H152.077V12.3144H153.269V4.55715H151.964V10.4882C151.706 10.8114 151.19 11.3447 150.401 11.3447C149.531 11.3447 149.112 10.8276 149.112 9.55088V4.55715H147.808V9.64785C147.808 11.7488 148.661 12.5083 150.031 12.5083C151.207 12.5083 151.899 11.7164 152.044 11.4417ZM158.166 5.5268C158.971 5.5268 159.326 6.06012 159.326 7.32067V12.3144H160.631V7.11058C160.631 6.81968 160.614 6.54494 160.566 6.30253C160.856 5.96315 161.339 5.5268 162.048 5.5268C162.918 5.5268 163.385 6.06012 163.385 7.32067V12.3144H164.69V7.11058C164.69 5.26823 163.885 4.36322 162.338 4.36322C161.339 4.36322 160.631 4.96117 160.292 5.39752C159.938 4.7026 159.294 4.36322 158.424 4.36322C157.36 4.36322 156.7 5.0743 156.49 5.42984H156.458V4.55715H155.266V12.3144H156.571V6.33485C156.797 6.06012 157.296 5.5268 158.166 5.5268Z" fill="black"/>
<path d="M57.3053 27.5059C56.4031 27.5059 55.5977 26.7948 55.5977 24.6616C55.5977 22.4637 56.5481 21.6879 57.7563 21.6879C58.2235 21.6879 58.5296 21.8172 58.7551 21.9627V26.7463C58.5779 27.0049 58.1268 27.5059 57.3053 27.5059ZM58.8357 27.6513H58.8679V28.4755H60.06V16.9043L58.7551 17.0497V20.7668C58.5135 20.6698 58.1591 20.5728 57.6597 20.5728C56.0165 20.5728 54.2445 21.5748 54.2445 24.71C54.2445 27.5382 55.4849 28.6695 56.9509 28.6695C58.1752 28.6695 58.6907 27.8937 58.8357 27.6513ZM64.5706 21.591C65.3922 21.591 65.8271 22.2212 65.8271 23.2879C65.8271 23.5303 65.811 23.7404 65.7949 23.8535H62.9919C63.0563 22.399 63.6524 21.591 64.5706 21.591ZM67.1803 27.7483L66.697 26.8271C66.5198 27.0049 65.9882 27.5059 65.07 27.5059C63.7651 27.5059 63.0563 26.6493 62.9758 24.8393H66.9226C66.9709 24.4676 67.0192 23.999 67.0192 23.3364C67.0192 21.4778 66.1171 20.5243 64.6511 20.5243C63.0402 20.5243 61.7031 21.7526 61.7031 24.4999C61.7031 27.4251 62.9274 28.6695 64.8767 28.6695C66.3426 28.6695 66.9709 27.9745 67.1803 27.7483ZM72.3192 20.7021C72.1903 20.6536 71.9809 20.5728 71.6104 20.5728C70.6277 20.5728 70.2089 21.1546 69.9833 21.7687H69.9511V20.7183H68.759V28.4755H70.0639V22.7869C70.2572 22.2697 70.6921 21.7364 71.5137 21.7364C71.8681 21.7364 72.0937 21.8334 72.1581 21.8657L72.3192 20.7021ZM78.7629 17.3245H77.3614V25.8251C77.3614 27.021 76.9909 27.4089 76.2659 27.4089C75.8954 27.4089 75.686 27.2958 75.5571 27.215L75.3316 28.3786C75.4766 28.4594 75.7988 28.621 76.3304 28.621C77.7963 28.621 78.7629 27.9261 78.7629 25.9706V17.3245ZM85.1583 27.6028H85.1905V28.4755H86.3826V20.7183H85.0778V26.6493C84.82 26.9726 84.3045 27.5059 83.5152 27.5059C82.6452 27.5059 82.2264 26.9887 82.2264 25.712V20.7183H80.9215V25.809C80.9215 27.9099 81.7753 28.6695 83.1446 28.6695C84.3206 28.6695 85.0133 27.8776 85.1583 27.6028ZM92.2787 21.3486C92.0209 21.09 91.5054 20.5243 90.3133 20.5243C89.0568 20.5243 88.0741 21.3809 88.0741 22.5283C88.0741 23.5949 88.654 24.2252 89.6206 24.8393L90.1039 25.1464C90.8449 25.615 91.2315 25.8736 91.2315 26.617C91.2315 27.118 90.8127 27.5059 90.0394 27.5059C89.2018 27.5059 88.7185 27.0049 88.4768 26.7463L87.8486 27.7806C88.1546 28.1038 88.7829 28.6695 90.0233 28.6695C91.6021 28.6695 92.4881 27.716 92.4881 26.4877C92.4881 25.3403 91.8437 24.71 90.7966 24.0798L90.3133 23.7889C89.6206 23.3687 89.2984 23.0455 89.2984 22.4637C89.2984 22.0112 89.6689 21.6395 90.3616 21.6395C91.0866 21.6395 91.5376 22.092 91.7148 22.2859L92.2787 21.3486ZM97.5303 28.3301L97.3531 27.2796C97.2242 27.3604 96.9342 27.5059 96.5476 27.5059C95.8871 27.5059 95.6294 27.1827 95.6294 26.0837V21.7849H97.3209L97.482 20.7183H95.6294V18.5527H94.4695L94.3245 20.7183L93.3902 20.9122V21.7849H94.3245V26.2615C94.3245 27.9745 95.0011 28.6695 96.3221 28.6695C97.0148 28.6695 97.4175 28.4109 97.5303 28.3301ZM99.4634 18.8436C99.9789 18.8436 100.333 18.4557 100.333 17.9063C100.333 17.373 99.9789 16.9851 99.4634 16.9851C98.9318 16.9851 98.5774 17.373 98.5774 17.9063C98.5774 18.4557 98.9318 18.8436 99.4634 18.8436ZM100.108 20.7183H98.8029V28.4755H100.108V20.7183ZM106.423 20.7183H101.783V21.7849H104.828V21.8172L101.606 27.6352V28.4755H106.519L106.632 27.3604H103.297V27.3281L106.423 21.5586V20.7183ZM115.669 27.6028H115.702V28.4755H116.894V20.7183H115.589V26.6493C115.331 26.9726 114.816 27.5059 114.026 27.5059C113.156 27.5059 112.738 26.9887 112.738 25.712V20.7183H111.433V25.809C111.433 27.9099 112.286 28.6695 113.656 28.6695C114.832 28.6695 115.524 27.8776 115.669 27.6028ZM121.775 21.6395C122.677 21.6395 123.112 22.1728 123.112 23.4818V28.4755H124.417V23.3848C124.417 21.2839 123.547 20.5243 122.162 20.5243C120.953 20.5243 120.261 21.3162 120.116 21.591H120.083V20.7183H118.891V28.4755H120.196V22.496C120.454 22.1728 120.986 21.6395 121.775 21.6395ZM129.072 27.5059C128.17 27.5059 127.365 26.7948 127.365 24.6616C127.365 22.4637 128.315 21.6879 129.523 21.6879C129.991 21.6879 130.297 21.8172 130.522 21.9627V26.7463C130.345 27.0049 129.894 27.5059 129.072 27.5059ZM130.603 27.6513H130.635V28.4755H131.827V16.9043L130.522 17.0497V20.7668C130.281 20.6698 129.926 20.5728 129.427 20.5728C127.784 20.5728 126.012 21.5748 126.012 24.71C126.012 27.5382 127.252 28.6695 128.718 28.6695C129.942 28.6695 130.458 27.8937 130.603 27.6513Z" fill="black"/>
<path d="M57.8529 37.9455L58.014 36.8788H56.2742V35.489C56.2742 34.4709 56.6125 34.1315 57.2247 34.1315C57.563 34.1315 57.8046 34.2608 57.9335 34.3416L58.2073 33.2588C58.0785 33.178 57.6596 32.9679 57.1119 32.9679C55.9681 32.9679 54.9693 33.6467 54.9693 35.3436V36.895L54.035 37.0728V37.9455H54.9693V44.6361H56.2742V37.9455H57.8529ZM63.8295 34.6486C63.8295 34.1476 63.4912 33.8244 63.0563 33.8244C62.6213 33.8244 62.283 34.1476 62.283 34.6486C62.283 35.1496 62.6213 35.4728 63.0563 35.4728C63.4912 35.4728 63.8295 35.1496 63.8295 34.6486ZM61.3487 34.6486C61.3487 34.1476 61.0104 33.8244 60.5754 33.8244C60.1405 33.8244 59.8022 34.1476 59.8022 34.6486C59.8022 35.1496 60.1405 35.4728 60.5754 35.4728C61.0104 35.4728 61.3487 35.1496 61.3487 34.6486ZM63.3301 43.7634H63.3623V44.6361H64.5544V36.8788H63.2496V42.8099C62.9918 43.1331 62.4763 43.6664 61.687 43.6664C60.817 43.6664 60.3982 43.1493 60.3982 41.8726V36.8788H59.0933V41.9695C59.0933 44.0705 59.9471 44.83 61.3164 44.83C62.4924 44.83 63.1851 44.0381 63.3301 43.7634ZM70.1122 36.8627C69.9833 36.8142 69.7739 36.7334 69.4033 36.7334C68.4207 36.7334 68.0018 37.3152 67.7763 37.9293H67.7441V36.8788H66.552V44.6361H67.8568V38.9474C68.0502 38.4303 68.4851 37.897 69.3067 37.897C69.6611 37.897 69.8866 37.9939 69.9511 38.0263L70.1122 36.8627ZM79.9066 33.485L77.6996 40.9029C77.458 41.711 77.2325 42.519 77.2164 43.0038H77.1841C77.168 42.519 76.9586 41.711 76.717 40.8868L74.5905 33.485H73.0762L76.5881 44.6361H77.6996L81.3081 33.485H79.9066ZM84.2239 37.7515C85.0455 37.7515 85.4805 38.3818 85.4805 39.4484C85.4805 39.6908 85.4644 39.9009 85.4482 40.0141H82.6452C82.7096 38.5596 83.3057 37.7515 84.2239 37.7515ZM86.8336 43.9089L86.3504 42.9877C86.1732 43.1654 85.6416 43.6664 84.7233 43.6664C83.4185 43.6664 82.7096 42.8099 82.6291 40.9999H86.5759C86.6242 40.6282 86.6726 40.1595 86.6726 39.4969C86.6726 37.6384 85.7704 36.6849 84.3045 36.6849C82.6935 36.6849 81.3565 37.9131 81.3565 40.6605C81.3565 43.5856 82.5808 44.83 84.53 44.83C85.996 44.83 86.6242 44.1351 86.8336 43.9089ZM91.9725 36.8627C91.8436 36.8142 91.6342 36.7334 91.2637 36.7334C90.281 36.7334 89.8622 37.3152 89.6367 37.9293H89.6044V36.8788H88.4123V44.6361H89.7172V38.9474C89.9105 38.4303 90.3455 37.897 91.1671 37.897C91.5215 37.897 91.747 37.9939 91.8114 38.0263L91.9725 36.8627ZM98.8673 40.4019C98.8673 37.8485 97.8524 36.6849 96.2737 36.6849C95.2266 36.6849 94.6306 37.2829 94.4211 37.6222H94.3889V33.0972L93.084 33.2103V44.022C93.3418 44.2321 94.0506 44.7815 95.3071 44.7815C97.2242 44.7815 98.8673 43.7311 98.8673 40.4019ZM97.5141 40.5635C97.5141 42.9069 96.5959 43.6664 95.3555 43.6664C94.9044 43.6664 94.5822 43.4887 94.3889 43.3594V38.5919C94.6789 38.2202 95.0816 37.8 95.8871 37.8C96.8859 37.8 97.5141 38.6404 97.5141 40.5635ZM104.087 36.8627C103.958 36.8142 103.748 36.7334 103.378 36.7334C102.395 36.7334 101.976 37.3152 101.751 37.9293H101.719V36.8788H100.527V44.6361H101.831V38.9474C102.025 38.4303 102.46 37.897 103.281 37.897C103.636 37.897 103.861 37.9939 103.926 38.0263L104.087 36.8627ZM108.307 40.2726H107.905C106.149 40.2726 104.683 40.8706 104.683 42.6645C104.683 43.925 105.569 44.83 106.745 44.83C107.727 44.83 108.195 44.1674 108.372 43.7796H108.404C108.42 44.1674 108.436 44.4098 108.452 44.6361H109.693C109.661 44.426 109.596 43.6826 109.596 43.02V39.4808C109.596 37.5253 108.758 36.6849 107.18 36.6849C105.939 36.6849 105.198 37.2829 104.86 37.6222L105.408 38.4949C105.698 38.2364 106.213 37.8 106.986 37.8C107.824 37.8 108.307 38.2202 108.307 39.5292V40.2726ZM108.307 41.2423V42.9554C108.146 43.1978 107.776 43.7149 107.019 43.7149C106.374 43.7149 105.988 43.3109 105.988 42.519C105.988 41.6625 106.648 41.3069 107.889 41.2585L108.307 41.2423ZM115.75 43.7634H115.782V44.6361H116.974V36.8788H115.669V42.8099C115.412 43.1331 114.896 43.6664 114.107 43.6664C113.237 43.6664 112.818 43.1493 112.818 41.8726V36.8788H111.513V41.9695C111.513 44.0705 112.367 44.83 113.736 44.83C114.912 44.83 115.605 44.0381 115.75 43.7634ZM123.821 37.4606C123.579 37.1859 123.031 36.6849 121.855 36.6849C120.325 36.6849 118.617 37.7677 118.617 40.7413C118.617 43.7796 119.987 44.83 121.71 44.83C122.919 44.83 123.515 44.2644 123.724 44.022L123.192 43.117C123.031 43.2947 122.629 43.6664 121.839 43.6664C120.728 43.6664 119.971 42.923 119.971 40.6443C119.971 38.5919 120.84 37.8 121.952 37.8C122.725 37.8 123.128 38.2364 123.273 38.3818L123.821 37.4606ZM128.074 37.8C128.976 37.8 129.411 38.3333 129.411 39.6424V44.6361H130.715V39.5454C130.715 37.493 129.862 36.6849 128.508 36.6849C127.268 36.6849 126.688 37.4283 126.527 37.6707H126.495V33.0649L125.19 33.2103V44.6361H126.495V38.6565C126.753 38.3333 127.284 37.8 128.074 37.8ZM135.178 37.7515C135.999 37.7515 136.434 38.3818 136.434 39.4484C136.434 39.6908 136.418 39.9009 136.402 40.0141H133.599C133.663 38.5596 134.26 37.7515 135.178 37.7515ZM137.787 43.9089L137.304 42.9877C137.127 43.1654 136.595 43.6664 135.677 43.6664C134.372 43.6664 133.663 42.8099 133.583 40.9999H137.53C137.578 40.6282 137.626 40.1595 137.626 39.4969C137.626 37.6384 136.724 36.6849 135.258 36.6849C133.647 36.6849 132.31 37.9131 132.31 40.6605C132.31 43.5856 133.535 44.83 135.484 44.83C136.95 44.83 137.578 44.1351 137.787 43.9089ZM142.926 36.8627C142.797 36.8142 142.588 36.7334 142.218 36.7334C141.235 36.7334 140.816 37.3152 140.591 37.9293H140.558V36.8788H139.366V44.6361H140.671V38.9474C140.864 38.4303 141.299 37.897 142.121 37.897C142.475 37.897 142.701 37.9939 142.765 38.0263L142.926 36.8627ZM147.888 37.5091C147.63 37.2505 147.115 36.6849 145.923 36.6849C144.666 36.6849 143.683 37.5414 143.683 38.6889C143.683 39.7555 144.263 40.3858 145.23 40.9999L145.713 41.3069C146.454 41.7756 146.841 42.0342 146.841 42.7776C146.841 43.2786 146.422 43.6664 145.649 43.6664C144.811 43.6664 144.328 43.1655 144.086 42.9069L143.458 43.9412C143.764 44.2644 144.392 44.83 145.633 44.83C147.211 44.83 148.097 43.8765 148.097 42.6483C148.097 41.5009 147.453 40.8706 146.406 40.2403L145.923 39.9494C145.23 39.5292 144.908 39.206 144.908 38.6242C144.908 38.1717 145.278 37.8 145.971 37.8C146.696 37.8 147.147 38.2525 147.324 38.4465L147.888 37.5091ZM154.477 37.4606C154.235 37.1859 153.687 36.6849 152.511 36.6849C150.981 36.6849 149.273 37.7677 149.273 40.7413C149.273 43.7796 150.643 44.83 152.366 44.83C153.575 44.83 154.171 44.2644 154.38 44.022L153.848 43.117C153.687 43.2947 153.285 43.6664 152.495 43.6664C151.384 43.6664 150.627 42.923 150.627 40.6443C150.627 38.5919 151.496 37.8 152.608 37.8C153.381 37.8 153.784 38.2364 153.929 38.3818L154.477 37.4606ZM158.73 37.8C159.632 37.8 160.067 38.3333 160.067 39.6424V44.6361H161.372V39.5454C161.372 37.493 160.518 36.6849 159.165 36.6849C157.924 36.6849 157.344 37.4283 157.183 37.6707H157.151V33.0649L155.846 33.2103V44.6361H157.151V38.6565C157.409 38.3333 157.94 37.8 158.73 37.8ZM167.509 43.7634H167.541V44.6361H168.734V36.8788H167.429V42.8099C167.171 43.1331 166.655 43.6664 165.866 43.6664C164.996 43.6664 164.577 43.1493 164.577 41.8726V36.8788H163.272V41.9695C163.272 44.0705 164.126 44.83 165.496 44.83C166.672 44.83 167.364 44.0381 167.509 43.7634ZM174.243 44.4906L174.066 43.4402C173.937 43.521 173.647 43.6664 173.26 43.6664C172.6 43.6664 172.342 43.3432 172.342 42.2443V37.9455H174.034L174.195 36.8788H172.342V34.7133H171.182L171.037 36.8788L170.103 37.0728V37.9455H171.037V42.422C171.037 44.1351 171.714 44.83 173.035 44.83C173.727 44.83 174.13 44.5715 174.243 44.4906ZM179.833 36.8788H175.193V37.9455H178.238V37.9778L175.016 43.7957V44.6361H179.93L180.042 43.521H176.708V43.4887L179.833 37.7192V36.8788Z" fill="black"/>
</svg>
